<svg xmlns="http://www.w3.org/2000/svg" width="360" height="164" viewBox="0 0 360 164" fill="none">
  <path d="M 360 80.617 L 358.628 81.995 L 358.503 82.12 C 355.562 85.341 352.443 88.401 349.377 91.514 C 328.916 112.288 308.49 133.097 287.922 153.764 C 285.925 155.75 283.145 157.521 280.436 158.129 C 272.647 159.865 266.106 154.443 265.713 146.123 C 265.41 139.735 265.606 133.312 265.606 126.906 C 265.589 114.22 265.517 101.552 265.624 88.884 C 265.678 82.782 263.646 77.969 257.889 75.536 C 251.954 73.031 247.034 74.999 242.614 79.472 C 220.085 102.178 197.467 124.795 174.867 147.429 C 169.858 152.422 164.993 153.656 159.61 151.312 C 153.978 148.843 151.946 144.28 151.981 138.358 C 152.035 121.825 152.017 105.274 151.964 88.723 C 151.928 80.975 148.399 76.234 141.982 74.802 C 136.528 73.567 132.607 76.019 128.971 79.758 C 103.163 106.133 77.283 132.435 51.492 158.809 C 48.195 162.155 44.612 164.499 39.729 163.909 C 32.777 163.086 28.607 158.058 28.518 150.167 C 28.268 130.789 28.197 111.393 27.929 92.015 C 27.805 82.621 17.521 76.538 9.643 81.118 C 8.431 81.923 6.987 83.48 6.63 83.802 C 6.506 83.91 6.399 84.017 6.292 84.124 C 6.185 84.232 6.078 84.321 5.989 84.428 C 5.9 84.5 5.828 84.572 5.828 84.572 L 0.178 90.244 C 0.071 88.24 0.018 86.236 0 84.214 L 2.62 81.584 L 12.013 71.975 L 12.013 72.011 C 32.403 51.201 52.829 30.41 73.29 9.654 C 77.319 5.557 82.149 4.179 87.531 6.541 C 92.861 8.867 95.285 13.233 95.267 19.012 L 95.267 47.623 C 95.267 57.178 95.231 66.715 95.285 76.251 C 95.338 82.496 98.065 87.256 103.804 89.778 C 108.581 91.89 112.645 90.369 116.245 86.647 C 131.163 71.277 146.153 55.961 161.143 40.662 C 172.799 28.764 184.527 16.936 196.148 4.984 C 200.39 0.618 205.149 -1.332 210.995 1.083 C 216.806 3.499 218.855 8.276 218.82 14.36 C 218.766 30.911 218.748 47.444 218.855 63.995 C 218.927 73.12 224.951 79.096 233.096 77.54 C 236.305 76.931 239.602 74.659 242.008 72.279 C 264.662 49.913 287.137 27.368 309.666 4.877 C 314.871 -0.294 320.343 -1.368 325.743 1.727 C 330.502 4.447 332.267 8.724 332.249 14.074 C 332.195 32.7 332.284 51.344 332.231 69.971 C 332.195 76.126 334.691 80.635 340.323 83.158 C 342.64 84.196 344.886 84.536 347.007 84.25 C 348.753 83.91 350.09 83.731 354.724 79.222 L 359.84 74.23 C 359.947 76.359 360 78.47 360 80.617 Z" fill="currentColor" fill-rule="nonzero"></path>
</svg>