<svg width="32" height="32" viewBox="0 0 32 32" fill="none" xmlns="http://www.w3.org/2000/svg">
<g id="right/bt">
<path id="container" d="M28 16C28 22.6274 22.6274 28 16 28C9.37258 28 4 22.6274 4 16C4 9.37258 9.37258 4 16 4C22.6274 4 28 9.37258 28 16ZM5.2 16C5.2 21.9647 10.0353 26.8 16 26.8C21.9647 26.8 26.8 21.9647 26.8 16C26.8 10.0353 21.9647 5.2 16 5.2C10.0353 5.2 5.2 10.0353 5.2 16Z" fill="currentColor"></path>
<path id="container_2" d="M28 16C28 22.6274 22.6274 28 16 28C9.37258 28 4 22.6274 4 16C4 9.37258 9.37258 4 16 4C22.6274 4 28 9.37258 28 16ZM5.2 16C5.2 21.9647 10.0353 26.8 16 26.8C21.9647 26.8 26.8 21.9647 26.8 16C26.8 10.0353 21.9647 5.2 16 5.2C10.0353 5.2 5.2 10.0353 5.2 16Z" fill="currentColor"></path>
<g id="ic/bluetooth off" clip-path="url(#clip0_150_5365)">
<path id="Subtract" fill-rule="evenodd" clip-rule="evenodd" d="M16.618 10.145C16.4178 9.98564 16.1439 9.955 15.9133 10.0662C15.6828 10.1773 15.5362 10.4107 15.5362 10.6667V14.5329L13.1052 12.4101C12.8278 12.1679 12.4067 12.1965 12.1645 12.4738C11.9223 12.7511 11.9509 13.1723 12.2282 13.4145L15.1893 16L12.2282 18.5856C11.9509 18.8277 11.9223 19.2489 12.1645 19.5262C12.4067 19.8035 12.8278 19.8321 13.1052 19.5899L15.5362 17.4672V21.3333C15.5362 21.5893 15.6828 21.8227 15.9133 21.9338C16.1439 22.045 16.4178 22.0144 16.618 21.855L19.7485 19.3638C19.9015 19.242 19.9933 19.0592 19.9997 18.8638C20.006 18.6683 19.9262 18.48 19.7815 18.3485L17.1947 16L19.7815 13.6515C19.9262 13.52 20.006 13.3317 19.9997 13.1362C19.9933 12.9408 19.9015 12.758 19.7485 12.6363L16.618 10.145ZM18.3047 13.1913L16.8696 14.4943V12.0492L18.3047 13.1913ZM18.3047 18.8087L16.8696 17.5057V19.9508L18.3047 18.8087Z" fill="currentColor"></path>
</g>
</g>
<defs>
<clipPath id="clip0_150_5365">
<rect width="16" height="16" fill="white" transform="translate(8 8)"></rect>
</clipPath>
</defs>
</svg>