<svg width="48" height="48" viewBox="0 0 48 48" fill="none" xmlns="http://www.w3.org/2000/svg">
<rect width="48" height="48" rx="24" fill="#FA78D5" fill-opacity="0.3"></rect>
<path fill-rule="evenodd" clip-rule="evenodd" d="M14.5593 17.5667C14.9464 15.5029 16.7501 14 18.8584 14H26C27.3451 14 28.5662 14.5312 29.4649 15.3952C29.9968 14.5566 30.9334 14 32 14H33C34.6569 14 36 15.3431 36 17V25C36 26.6569 34.6569 28 33 28H32C30.993 28 30.1019 27.5039 29.5578 26.7427L27.4623 30.335L26.7292 35.4665C26.5216 36.9202 25.2765 38 23.8081 38C23.0254 38 22.2749 37.6891 21.7215 37.1357L21.1716 36.5858C20.4214 35.8356 20 34.8182 20 33.7574V33C20 32.9585 20.0026 32.9171 20.0077 32.876L20.3672 30H15.3871C13.5164 30 12 28.4836 12 26.6129C12 26.0808 12.1015 25.5536 12.2992 25.0595L12.67 24.1324C12.8324 23.7264 12.8324 23.2736 12.67 22.8676C12.1649 21.6048 12.3927 20.1667 13.2634 19.1219L14.5593 17.5667ZM29 23.7297V19C29 17.3431 27.6569 16 26 16H18.8584C17.6978 16 16.7073 16.8391 16.5165 17.9839C16.4676 18.2773 16.3415 18.5523 16.1511 18.7808L14.7998 20.4022C14.3994 20.8827 14.2947 21.5441 14.527 22.1248C14.8801 23.0076 14.8801 23.9924 14.527 24.8752L14.1561 25.8023C14.053 26.0601 14 26.3353 14 26.6129C14 27.379 14.621 28 15.3871 28H21.5C21.7868 28 22.0599 28.1232 22.2497 28.3382C22.4395 28.5532 22.5279 28.8394 22.4923 29.124L22 33.0623V33.7574C22 34.2878 22.2107 34.7965 22.5858 35.1716L23.1357 35.7215C23.314 35.8998 23.5559 36 23.8081 36C24.2812 36 24.6824 35.6521 24.7493 35.1836L25.5101 29.8586C25.5283 29.7307 25.5712 29.6077 25.6362 29.4961L29 23.7297ZM31 25C31 25.5523 31.4477 26 32 26H33C33.5523 26 34 25.5523 34 25V17C34 16.4477 33.5523 16 33 16H32C31.4477 16 31 16.4477 31 17V25Z" fill="#FA78D5"></path>
</svg>