<svg xmlns="http://www.w3.org/2000/svg" width="24" height="24" viewBox="0 0 24 24" fill="none">
  <mask id="mask0_2663_208" style="mask-type:alpha" maskUnits="userSpaceOnUse" x="0" y="0" width="24" height="24">
    <rect width="24" height="24" fill="#D9D9D9"></rect>
  </mask>
  <g mask="url(#mask0_2663_208)">
    <path d="M7.39325 12.697L12.5019 17.8057C12.6423 17.9493 12.7128 18.1148 12.7135 18.3023C12.7141 18.4898 12.6426 18.6554 12.4991 18.7989C12.3523 18.9438 12.1859 19.0167 12 19.0177C11.8141 19.0186 11.6494 18.9457 11.5058 18.7989L5.30678 12.5999C5.21833 12.5146 5.15358 12.4222 5.11255 12.3225C5.07153 12.2228 5.05103 12.1153 5.05103 11.9999C5.05103 11.8845 5.07153 11.777 5.11255 11.6773C5.15358 11.5776 5.21833 11.4836 5.30678 11.3951L11.5058 5.19609C11.641 5.06084 11.8037 4.9916 11.9938 4.98839C12.1838 4.98519 12.3523 5.05442 12.4991 5.19609C12.6426 5.34287 12.7144 5.5097 12.7144 5.69656C12.7144 5.88341 12.6426 6.05023 12.4991 6.19701L7.39325 11.298H18.601C18.792 11.298 18.9559 11.3664 19.0928 11.5033C19.2296 11.6401 19.2981 11.8057 19.2981 11.9999C19.2981 12.1941 19.2296 12.3589 19.0928 12.4941C18.9559 12.6294 18.792 12.697 18.601 12.697H7.39325Z" fill="black"></path>
  </g>
</svg>