<svg width="24" height="24" viewBox="0 0 24 24" fill="none" xmlns="http://www.w3.org/2000/svg">
<path d="M21.5808 18.424C21.2218 19.2275 20.7967 19.9672 20.3043 20.6472C19.633 21.5743 19.0834 22.216 18.6598 22.5724C18.0032 23.1573 17.2997 23.4569 16.5464 23.4739C16.0056 23.4739 15.3534 23.3248 14.5942 23.0224C13.8325 22.7214 13.1325 22.5724 12.4925 22.5724C11.8212 22.5724 11.1013 22.7214 10.3312 23.0224C9.56002 23.3248 8.93874 23.4824 8.46373 23.498C7.74132 23.5278 7.02125 23.2198 6.30251 22.5724C5.84376 22.1848 5.26997 21.5204 4.58259 20.5791C3.84508 19.5739 3.23875 18.4084 2.76374 17.0795C2.25502 15.6442 2 14.2543 2 12.9087C2 11.3673 2.34384 10.0379 3.03254 8.92385C3.57379 8.02901 4.29386 7.32313 5.19508 6.80493C6.09629 6.28674 7.07006 6.02268 8.11872 6.00578C8.69251 6.00578 9.44497 6.17771 10.38 6.5156C11.3125 6.85463 11.9112 7.02655 12.1737 7.02655C12.3699 7.02655 13.035 6.82552 14.1625 6.42474C15.2288 6.05306 16.1287 5.89916 16.8659 5.95978C18.8636 6.11595 20.3644 6.87876 21.3625 8.25304C19.5758 9.30164 18.6921 10.7703 18.7097 12.6544C18.7258 14.122 19.2754 15.3432 20.3556 16.3129C20.8451 16.7629 21.3918 17.1108 22 17.3578C21.8681 17.7283 21.7289 18.0833 21.5808 18.424ZM16.9993 0.960131C16.9993 2.11039 16.5654 3.18439 15.7007 4.17847C14.6572 5.36024 13.395 6.04312 12.0262 5.93536C12.0088 5.79737 11.9987 5.65213 11.9987 5.49951C11.9987 4.39526 12.4949 3.21349 13.3762 2.24724C13.8162 1.75801 14.3758 1.35122 15.0544 1.02671C15.7315 0.707053 16.372 0.530273 16.9744 0.5C16.9919 0.653772 16.9993 0.807554 16.9993 0.960116V0.960131Z" fill="#101011"></path>
</svg>