<svg width="48" height="48" viewBox="0 0 48 48" fill="none" xmlns="http://www.w3.org/2000/svg">
<rect width="48" height="48" rx="24" fill="#5E4FFF"></rect>
<path fill-rule="evenodd" clip-rule="evenodd" d="M24.1919 12C23.7188 12 23.3176 12.3479 23.2507 12.8164L22.4899 18.1414C22.4717 18.2693 22.4288 18.3923 22.3638 18.5039L19 24.2703V29C19 30.6569 20.3431 32 22 32H29.1416C30.3022 32 31.2927 31.1609 31.4835 30.0161C31.5324 29.7227 31.6585 29.4477 31.8489 29.2192L33.2002 27.5978C33.6006 27.1173 33.7053 26.4559 33.473 25.8752C33.1199 24.9924 33.1199 24.0076 33.473 23.1248L33.8439 22.1977C33.947 21.9399 34 21.6647 34 21.3871C34 20.621 33.379 20 32.6129 20H26.5C26.2132 20 25.9401 19.8768 25.7503 19.6618C25.5605 19.4468 25.4721 19.1606 25.5077 18.876L26 14.9377V14.2426C26 13.7122 25.7893 13.2035 25.4142 12.8284L24.8643 12.2785C24.686 12.1002 24.4441 12 24.1919 12ZM17 23C17 22.4477 16.5523 22 16 22H15C14.4477 22 14 22.4477 14 23V31C14 31.5523 14.4477 32 15 32H16C16.5523 32 17 31.5523 17 31V23ZM18.4422 21.2573C17.8981 20.4961 17.007 20 16 20H15C13.3431 20 12 21.3431 12 23V31C12 32.6569 13.3431 34 15 34H16C17.0666 34 18.0032 33.4434 18.5351 32.6048C19.4338 33.4688 20.6549 34 22 34H29.1416C31.2499 34 33.0536 32.4971 33.4407 30.4333L34.7366 28.8781C35.6073 27.8333 35.8351 26.3952 35.33 25.1324C35.1676 24.7264 35.1676 24.2736 35.33 23.8676L35.7008 22.9405C35.8985 22.4464 36 21.9192 36 21.3871C36 19.5164 34.4836 18 32.6129 18H27.6328L27.9923 15.124C27.9974 15.0829 28 15.0415 28 15V14.2426C28 13.1818 27.5786 12.1644 26.8284 11.4142L26.2785 10.8643C25.7251 10.3109 24.9746 10 24.1919 10C22.7235 10 21.4784 11.0798 21.2708 12.5335L20.5377 17.665L18.4422 21.2573Z" fill="white"></path>
</svg>