<svg xmlns="http://www.w3.org/2000/svg" width="386.220" height="180.690" viewBox="0 0 386.220 180.690" fill="none">
  <path d="M 32.626 180.67 C 32.236 180.67 31.826 180.649 31.415 180.587 C 23.818 179.68 22.175 173.682 22.114 168.797 C 21.97 158.14 21.888 147.504 21.806 136.868 C 21.703 125.181 21.6 113.493 21.436 101.806 C 21.292 91.644 12.977 83.399 2.895 83.399 C 1.93 83.399 0.945 83.481 0 83.646 L 1.581 82.038 C 1.704 81.935 1.827 81.832 1.93 81.729 C 26.898 56.252 49.977 32.753 72.522 9.915 C 74.924 7.462 77.47 6.225 80.078 6.225 C 81.433 6.225 82.87 6.555 84.369 7.214 C 88.783 9.152 90.837 12.512 90.816 17.789 L 90.816 60.127 C 90.816 68.022 90.796 75.896 90.837 83.77 C 90.919 92.798 95.272 99.662 103.115 103.104 C 105.292 104.073 107.489 104.547 109.645 104.547 C 110.343 104.547 111.041 104.506 111.719 104.403 C 104.121 112.153 96.504 119.904 88.907 127.654 C 73.117 143.753 57.327 159.83 41.579 175.949 C 38.314 179.268 35.645 180.69 32.668 180.69 L 32.626 180.67 Z M 304.911 174.28 C 299.572 174.28 295.651 170.054 295.363 163.994 C 295.117 158.82 295.158 153.502 295.199 148.329 C 295.199 146.226 295.24 144.144 295.24 142.042 L 295.24 131.818 C 295.199 120.831 295.158 109.453 295.24 98.281 C 295.322 88.779 291.482 82.306 283.824 79.07 C 281.319 78.019 278.814 77.483 276.37 77.483 C 274.297 77.483 272.284 77.854 270.313 78.596 C 289.327 59.797 308.504 40.628 327.066 22.076 L 344.744 4.411 C 347.701 1.484 350.617 0 353.409 0 C 355.011 0 356.653 0.495 358.337 1.443 C 362.115 3.607 363.778 6.864 363.758 12.079 C 363.737 22.777 363.758 33.496 363.758 44.193 C 363.758 54.953 363.778 65.713 363.758 76.473 C 363.696 85.419 367.762 91.974 375.523 95.437 C 378.09 96.591 380.677 97.168 383.223 97.168 C 383.962 97.168 384.701 97.127 385.44 97.024 C 385.522 97.024 386.036 96.921 386.22 96.879 L 370.698 112.648 C 352.116 131.529 332.918 151.029 313.925 170.116 C 311.974 172.054 309.449 173.558 307.313 174.033 C 306.512 174.218 305.691 174.3 304.911 174.3 L 304.911 174.28 Z M 174.898 167.375 C 173.563 167.375 172.167 167.045 170.647 166.385 C 166.192 164.427 164.303 161.108 164.323 155.275 C 164.385 138.043 164.364 119.862 164.323 98.054 C 164.282 87.233 159.046 80.101 149.601 77.998 C 148.226 77.689 146.85 77.524 145.515 77.524 C 144.324 77.524 143.195 77.648 142.107 77.875 C 153.154 66.538 163.933 55.551 173.707 45.575 C 178.84 40.339 183.994 35.103 189.127 29.868 C 197.443 21.417 205.758 12.965 214.033 4.452 C 216.949 1.463 219.721 0 222.534 0 C 223.848 0 225.182 0.289 226.64 0.907 C 231.219 2.803 233.149 6.225 233.108 12.368 C 233.067 28.116 233.005 48.852 233.149 69.588 C 233.231 81.173 240.643 89.583 250.746 89.583 C 251.957 89.583 253.189 89.459 254.421 89.232 C 255.735 88.985 256.988 88.573 258.178 88.057 C 237.769 108.629 217.01 129.406 196.909 149.545 L 183.686 162.778 C 180.585 165.87 177.711 167.375 174.898 167.375 Z" fill="currentColor" fill-rule="nonzero"></path>
</svg>