<svg xmlns="http://www.w3.org/2000/svg" width="335.261" height="156.849" viewBox="0 0 335.261 156.849" fill="none">
  <path d="M 28.322 156.831 C 27.983 156.831 27.626 156.813 27.27 156.76 C 20.675 155.973 19.249 150.766 19.196 146.525 C 19.071 137.274 19 128.042 18.929 118.809 C 18.839 108.664 18.75 98.518 18.608 88.373 C 18.483 79.552 11.264 72.395 2.513 72.395 C 1.675 72.395 0.82 72.466 0 72.609 L 1.372 71.214 C 1.479 71.124 1.586 71.035 1.675 70.945 C 23.349 48.83 43.383 28.432 62.953 8.606 C 65.038 6.477 67.248 5.404 69.512 5.404 C 70.688 5.404 71.936 5.69 73.237 6.263 C 77.069 7.944 78.851 10.861 78.834 15.442 L 78.834 52.194 C 78.834 59.047 78.816 65.882 78.851 72.717 C 78.923 80.554 82.701 86.512 89.51 89.5 C 91.399 90.341 93.306 90.753 95.178 90.753 C 95.784 90.753 96.39 90.717 96.978 90.628 C 90.383 97.355 83.771 104.083 77.176 110.811 C 63.47 124.785 49.763 138.742 36.093 152.734 C 33.259 155.615 30.942 156.849 28.357 156.849 L 28.322 156.831 Z M 264.68 151.285 C 260.046 151.285 256.641 147.617 256.392 142.356 C 256.178 137.865 256.213 133.249 256.249 128.757 C 256.249 126.932 256.285 125.125 256.285 123.3 L 256.285 114.425 C 256.249 104.888 256.213 95.011 256.285 85.313 C 256.356 77.065 253.023 71.446 246.375 68.637 C 244.2 67.725 242.026 67.259 239.905 67.259 C 238.105 67.259 236.358 67.582 234.647 68.226 C 251.152 51.907 267.799 35.267 283.911 19.163 L 299.257 3.829 C 301.824 1.288 304.355 0 306.779 0 C 308.169 0 309.595 0.429 311.056 1.253 C 314.336 3.131 315.78 5.958 315.762 10.485 C 315.744 19.772 315.762 29.076 315.762 38.362 C 315.762 47.703 315.78 57.043 315.762 66.383 C 315.708 74.148 319.237 79.838 325.975 82.844 C 328.203 83.846 330.448 84.347 332.659 84.347 C 333.3 84.347 333.942 84.311 334.584 84.222 C 334.655 84.222 335.1 84.132 335.261 84.097 L 321.786 97.785 C 305.656 114.175 288.991 131.101 272.504 147.67 C 270.811 149.352 268.619 150.658 266.765 151.07 C 266.07 151.231 265.357 151.302 264.68 151.302 L 264.68 151.285 Z M 151.821 145.29 C 150.662 145.29 149.45 145.004 148.131 144.432 C 144.264 142.732 142.624 139.851 142.642 134.787 C 142.695 119.829 142.677 104.047 142.642 85.117 C 142.606 75.723 138.061 69.532 129.862 67.707 C 128.668 67.438 127.474 67.295 126.315 67.295 C 125.282 67.295 124.301 67.403 123.357 67.599 C 132.946 57.758 142.303 48.221 150.787 39.561 C 155.243 35.016 159.717 30.472 164.173 25.927 C 171.391 18.591 178.61 11.255 185.793 3.865 C 188.324 1.27 190.73 0 193.172 0 C 194.312 0 195.471 0.25 196.736 0.787 C 200.711 2.433 202.386 5.404 202.351 10.736 C 202.315 24.406 202.262 42.406 202.386 60.406 C 202.458 70.462 208.892 77.763 217.661 77.763 C 218.713 77.763 219.782 77.655 220.852 77.458 C 221.992 77.244 223.079 76.886 224.113 76.439 C 206.397 94.296 188.377 112.332 170.928 129.813 L 159.449 141.3 C 156.758 143.984 154.263 145.29 151.821 145.29 Z" fill="currentColor" fill-rule="nonzero"></path>
</svg>